<svg xmlns="http://www.w3.org/2000/svg" width="194.14" height="26.24" viewBox="0 0 194.14 26.24"><defs><style>.a{fill:none;}.b{fill:gray;}</style></defs><title>foodics-logo-grey</title><rect class="a" width="194.14" height="26.24"></rect><path class="b" d="M185.51,15.64h0a7.64,7.64,0,0,0-1-2.06A7.46,7.46,0,0,0,183.1,12a8.63,8.63,0,0,0-3.43-1.66,9.41,9.41,0,0,0-1.68-.21h-10.4a2,2,0,0,1-1.5-.54,2.19,2.19,0,0,1-.52-1.57,2.25,2.25,0,0,1,.54-1.59,1.88,1.88,0,0,1,1.49-.56h16V0h-16A8.53,8.53,0,0,0,165,.45a7.56,7.56,0,0,0-4.56,3.87,9.19,9.19,0,0,0,0,7.48,7.42,7.42,0,0,0,2,2.5A7.92,7.92,0,0,0,165,15.67a8.53,8.53,0,0,0,2.56.42H178a2.35,2.35,0,0,1,.87.16,1.55,1.55,0,0,1,.62.42,2,2,0,0,1,.4.66,2.79,2.79,0,0,1,.15.9,2.24,2.24,0,0,1-.53,1.57,2,2,0,0,1-1.52.54H159.89v5.89h18.05a8.66,8.66,0,0,0,1.69-.19,9.17,9.17,0,0,0,1.77-.58,8.88,8.88,0,0,0,1.67-1,6.43,6.43,0,0,0,1.45-1.54,7.64,7.64,0,0,0,1-2.06,8.58,8.58,0,0,0,.37-2.61,8.71,8.71,0,0,0-.36-2.59" transform="translate(0 0)"></path><path class="b" d="M52.54,3.16h0A10.64,10.64,0,0,0,49,.86,11.61,11.61,0,0,0,44.65,0h-6.1a11.57,11.57,0,0,0-4.39.83,10.73,10.73,0,0,0-3.52,2.3,10.66,10.66,0,0,0-2.33,3.52,11.73,11.73,0,0,0-.84,4.42v4.05a11.64,11.64,0,0,0,.84,4.44,10.77,10.77,0,0,0,2.33,3.51,10.35,10.35,0,0,0,3.52,2.31,11.61,11.61,0,0,0,4.4.82h6.09A11.79,11.79,0,0,0,49,25.41a10.4,10.4,0,0,0,5.82-5.82,11.44,11.44,0,0,0,.83-4.44V11.1a11.57,11.57,0,0,0-.83-4.42,10.45,10.45,0,0,0-2.31-3.52m-14,2.75h6.1a5.72,5.72,0,0,1,2.12.38,4.55,4.55,0,0,1,2.66,2.65,5.73,5.73,0,0,1,.37,2.17v4a5.73,5.73,0,0,1-.37,2.17A4.59,4.59,0,0,1,46.77,20a5.87,5.87,0,0,1-2.15.38H38.56A5.79,5.79,0,0,1,36.42,20a4.68,4.68,0,0,1-1.63-1,4.77,4.77,0,0,1-1-1.61,5.93,5.93,0,0,1-.37-2.17v-4a5.93,5.93,0,0,1,.37-2.17,4.63,4.63,0,0,1,1-1.61,4.83,4.83,0,0,1,1.63-1,5.79,5.79,0,0,1,2.14-.38" transform="translate(0 0)"></path><path class="b" d="M84.43,3.16a10.86,10.86,0,0,0-3.5-2.3A11.62,11.62,0,0,0,76.53,0H70.44A11.62,11.62,0,0,0,66,.86a10.83,10.83,0,0,0-3.52,2.3A10.63,10.63,0,0,0,60.2,6.68a11.54,11.54,0,0,0-.84,4.42v4.05a11.64,11.64,0,0,0,.84,4.44A10.44,10.44,0,0,0,66,25.41a11.65,11.65,0,0,0,4.4.82h6.1a11.79,11.79,0,0,0,4.39-.82,10.4,10.4,0,0,0,5.82-5.82,11.64,11.64,0,0,0,.84-4.44V11.1a11.58,11.58,0,0,0-.84-4.42,10.63,10.63,0,0,0-2.32-3.52m-14,2.75h6.09a5.73,5.73,0,0,1,2.13.38,4.55,4.55,0,0,1,2.66,2.65,5.73,5.73,0,0,1,.37,2.17v4a5.73,5.73,0,0,1-.37,2.17A4.57,4.57,0,0,1,78.64,20a5.79,5.79,0,0,1-2.14.38H70.44A5.79,5.79,0,0,1,68.3,20a4.57,4.57,0,0,1-2.68-2.65,5.93,5.93,0,0,1-.37-2.17v-4a5.93,5.93,0,0,1,.37-2.17,4.63,4.63,0,0,1,1-1.61,4.73,4.73,0,0,1,1.63-1,5.79,5.79,0,0,1,2.14-.38" transform="translate(0 0)"></path><path class="b" d="M114.55,3.16h0A10.73,10.73,0,0,0,111,.86a11.62,11.62,0,0,0-4.4-.83H94.49a3.13,3.13,0,0,0-1.17.23,2.66,2.66,0,0,0-.95.64,3.18,3.18,0,0,0-.62,1A2.81,2.81,0,0,0,91.53,3V23.28a2.85,2.85,0,0,0,.22,1.16,2.92,2.92,0,0,0,.63.95,2.8,2.8,0,0,0,.94.62,2.94,2.94,0,0,0,1.17.23h12.15a11.62,11.62,0,0,0,4.4-.83,10.83,10.83,0,0,0,3.52-2.3,10.59,10.59,0,0,0,2.32-3.51,11.59,11.59,0,0,0,.84-4.43V11.11a11.54,11.54,0,0,0-.84-4.42,10.55,10.55,0,0,0-2.33-3.52m-7.91,17.19H97.41V5.91h9.23a5.79,5.79,0,0,1,2.14.38A4.5,4.5,0,0,1,111.45,9a5.89,5.89,0,0,1,.38,2.16v4.05a5.89,5.89,0,0,1-.38,2.16,4.69,4.69,0,0,1-1,1.62,4.83,4.83,0,0,1-1.63,1,6,6,0,0,1-2.14.37" transform="translate(0 0)"></path><rect class="b" x="121.71" y="0.03" width="5.88" height="26.2"></rect><path class="b" d="M138.29.86a10.44,10.44,0,0,0-5.84,5.82,11.36,11.36,0,0,0-.84,4.42v4.05a11.59,11.59,0,0,0,.84,4.43,10.44,10.44,0,0,0,5.84,5.82,11.62,11.62,0,0,0,4.4.83h12.84V20.34H142.69a5.87,5.87,0,0,1-2.15-.37,4.91,4.91,0,0,1-1.62-1,4.45,4.45,0,0,1-1-1.61,5.93,5.93,0,0,1-.38-2.16V11.1a6,6,0,0,1,.38-2.17,4.63,4.63,0,0,1,1-1.61,4.79,4.79,0,0,1,1.62-1,5.87,5.87,0,0,1,2.15-.38h12.84V0H142.69a11.83,11.83,0,0,0-4.4.84" transform="translate(0 0)"></path><path class="b" d="M5.49,21h0a2.49,2.49,0,0,0-.77-.5,2.6,2.6,0,0,0-1-.18H2.43a2.69,2.69,0,0,0-1,.18A2.28,2.28,0,0,0,.19,21.81a2.42,2.42,0,0,0-.19,1v1a2.5,2.5,0,0,0,.19,1,2.33,2.33,0,0,0,.5.77,2.27,2.27,0,0,0,.77.5,2.64,2.64,0,0,0,1,.18H3.76a2.64,2.64,0,0,0,1-.18,2.27,2.27,0,0,0,.77-.5,2.33,2.33,0,0,0,.5-.77,2.5,2.5,0,0,0,.19-1v-1a2.45,2.45,0,0,0-.19-1,2.18,2.18,0,0,0-.5-.77" transform="translate(0 0)"></path><path class="b" d="M190.15,1.59h1.44a.74.74,0,0,1,.79.69v0A.64.64,0,0,1,192,3h0c.29.07.37.36.39.62a1.41,1.41,0,0,0,.12.64h-.59a2.35,2.35,0,0,1-.09-.64c0-.28-.15-.41-.45-.41h-.59v1h-.59V1.58Zm.59,1.21h.64c.26,0,.41-.11.41-.38s-.15-.37-.41-.37h-.64Z" transform="translate(0 0)"></path><path class="b" d="M191.2,5.91A2.95,2.95,0,1,1,194.14,3h0a2.94,2.94,0,0,1-2.94,2.94m0-5.26A2.32,2.32,0,1,0,193.52,3,2.32,2.32,0,0,0,191.2.65" transform="translate(0 0)"></path><path class="b" d="M6,7.63A1.68,1.68,0,0,1,7.68,6H23.87V0h-16A7.77,7.77,0,0,0,.06,7.77v2.58a7.77,7.77,0,0,0,7.77,7.77h8.45V12.18H7.69A1.69,1.69,0,0,1,6,10.5H6Z" transform="translate(0 0)"></path></svg>