<svg xmlns="http://www.w3.org/2000/svg" xmlns:xlink="http://www.w3.org/1999/xlink" id="Layer_1" x="0px" y="0px" viewBox="0 0 819.7 296.8" style="enable-background:new 0 0 819.7 296.8;" xml:space="preserve"><style type="text/css">	.st0{fill:#929497;}	.st1{fill:#ED7624;}</style><g id="Asset_1" transform="translate(295 638)">	<g id="Layer_1_1_">		<path id="Path_13" class="st0" d="M37.6-638H-3.3C-22.6-584.4-55.1-495.4-73-446.6c-1.8,4.7-4,9.2-6.7,13.5h28.3   c7.7-0.5,14.6-4.8,18.3-11.6c0.6-1,1.2-2.1,1.6-3.2l17.1-46.7l0,0C6.8-552.7,35.5-631.6,37.6-638"></path>		<path id="Path_14" class="st1" d="M472.3-535.5l-17.1,46.8c-3.2,8.3-10.9,14-19.8,14.6h-28.3c2.9-4.6,5.4-9.5,7.2-14.6l17.1-46.8   h-41l-17,46.8c-3.2,8.3-11,14-19.8,14.6h-28.5c2.9-4.6,5.3-9.5,7.2-14.6l17.1-46.8h-41l-17,46.8c-3.2,8.3-10.9,14-19.8,14.6h-131   c3-4.5,5.4-9.3,7.3-14.3l4.3-12c11.2-30.8-4.7-55.6-35.4-55.6H70.2l-14.9,40.9h46.8c8.1,0,12.3,6.5,9.3,14.6l-4.5,12   c-3.2,8.2-10.9,13.8-19.7,14.3H19.8l-14.9,41h415.9c30.8,0,64.2-24.7,75.4-55.3l17.2-47.1L472.3-535.5z"></path>		<path id="Path_15" class="st1" d="M-177.5-433.1h-108.3l14.9-41h108.4c8.9-0.6,16.7-6.3,20-14.6l4.2-11.6   c2.9-8.1-1.2-14.6-9.3-14.6h-67.3l14.9-41h67.2c30.8,0,46.5,24.9,35.4,55.6l-4.2,11.6C-112.8-457.9-146.8-433.2-177.5-433.1"></path>		<path id="Path_16" class="st0" d="M4.7-386.4h-5l-1.9,5.1h5L4.7-386.4z"></path>		<path id="Path_17" class="st0" d="M15.4-371.3c-0.6,2-2,3.7-3.8,4.8c-1.6,0.7-3.4,1-5.2,0.9H-6.2c-2,0.2-4.1-0.3-5.8-1.5   c-1.3-1.2-1.4-3.3-0.3-6.3l2.9-7.7h-5.1l-2.9,7.7c-3.2,8.7,0,13.1,9.9,13.1H9.2c4.5,0,8.5-3,9.8-7.4l5-13.6h-5L15.4-371.3z"></path>		<path id="Path_18" class="st0" d="M13.5-386.4H8.4l-1.8,5.1h5L13.5-386.4z"></path>		<path id="Path_19" class="st0" d="M48.1-370.5c0.6-1.7,1.6-3.2,2.9-4.5c1.2-1.3,2.9-2,4.7-2c2.4,0,3.6,1.2,3.6,3.6l5.2-2.1   c-0.1-3.4-2.9-6.1-6.3-6c-0.2,0-0.4,0-0.6,0c-3.2,0-6.3,1.2-8.8,3.2c-2.6,2-4.7,4.6-5.9,7.7c-0.6,1.5-0.9,3.2-0.8,4.9h-8.3   c-1.3,0.2-2.7-0.1-3.8-0.8c-0.7-0.7-0.7-2.2,0-4.4l7.1-19.3h-5l-7.7,21.3c-0.9,1.9-1,4-0.3,6c1,1.7,2.9,2.7,4.9,2.4h30.1l1.9-5.3   H47.9c-0.7-1.6-0.7-3.4,0-4.9"></path>		<path id="Path_20" class="st0" d="M118.6-390.7h-5l-1.9,5.1h5L118.6-390.7z"></path>		<path id="Path_21" class="st0" d="M112.8-381.7c-6.5,0.3-12.2,4.5-14.3,10.6c-0.7,1.7-0.9,3.6-0.7,5.5H85.2l2-5.4   c2.2-6,0-10.4-5.8-10.4c-6.3,0.2-11.9,4.3-14.1,10.2c-2.2,6.1,0.6,10.7,6.2,10.7h4.9c-1.3,2.3-3.8,3.6-6.4,3.6l-1.5,4   c5.5,0.3,10.5-2.7,12.8-7.7H105c6.5-0.3,12.1-4.5,14.2-10.6c2.2-6-0.2-10.8-6.4-10.8 M80-365.8h-4.6c-2.8,0-3.8-2.6-2.8-5.7   c1-3,3.7-5,6.9-5.2c2.7,0,3.6,1.9,2.8,4.7L80-365.8z M106.8-365.3c-3.1,0-4.2-2.7-3-6c0.9-3.2,3.7-5.6,7.1-5.9   c3.1,0,4.3,2.6,3,6.1C112.9-367.9,110.1-365.6,106.8-365.3"></path>		<path id="Path_22" class="st0" d="M207.5-370.4c-0.4,1.2-0.9,2.3-1.6,3.3c-1,1.1-2.4,1.6-3.8,1.5h-11.6c1.4-1.5,2.5-3.4,3-5.4   l7-19.3h-5.1l-7.1,19.3c-0.4,1.3-1,2.5-1.8,3.5c-1,1.1-2.4,1.7-3.8,1.6H175l0.5-1.3c1.1-2.4,1.1-5.3,0-7.7   c-1.3-2.2-3.8-3.4-6.3-3.1c-3.1,0-6.2,1.1-8.6,3c-2.6,2-4.5,4.6-5.6,7.7c0,0.5-0.4,1-0.5,1.5h-10.7c2.9-7.9,1.6-12.9-3.8-15   c-0.8-0.3-1.7-0.6-2.5-0.7h-4.8l-1.7,4.7c1.5,0,3,0.1,4.5,0.4c4.3,1,5.4,4.5,3.2,10.6H122l-1.9,5.2h34.7c1.1,2.7,3.9,4.2,6.8,3.8   c3.6,0,7.2-1.4,9.8-3.8h30.3c5.1,0.1,9.6-3.4,10.8-8.4l7.7-21.4H215L207.5-370.4z M167.3-362.7c-1.2,1.1-2.7,1.7-4.3,1.7   c-3.2,0-4.2-2.7-3-6c0.6-1.5,1.5-2.9,2.7-4c1.2-1.2,2.8-1.8,4.4-1.8c1.4-0.1,2.7,0.6,3.2,1.9c0.4,1.4,0.3,2.9-0.3,4.2   C169.5-365.3,168.6-363.9,167.3-362.7"></path>		<path id="Path_23" class="st0" d="M244.4-380.5c-0.8-0.3-1.7-0.6-2.5-0.7h-4.8l-1.7,4.7c1.5,0,3,0.1,4.5,0.4   c4.3,1,5.4,4.5,3.2,10.6h-16.6l-1.9,5.2h21.9l1.9-5.2C251.1-373.4,249.8-378.4,244.4-380.5"></path>		<path id="Path_24" class="st0" d="M251.1-360.3h5.1l10.9-29.8H262L251.1-360.3z"></path>		<path id="Path_25" class="st0" d="M326-370.7c-1.2,3.4-3.2,5.1-5.8,5.1h-4.9c1.5-1.6,2.6-3.5,3.1-5.6l3.8-10.1h-5.1l-3.8,10.6   c-1.2,3.4-3.2,5.1-5.8,5.1h-4.8v-0.3c1.3-1.6,2.2-3.4,2.8-5.4l3.8-10.1h-5.5l-3.8,10.2c-1.3,3.7-3.3,5.4-5.9,5.4h-9.5   c2.8-7.7,1.6-12.9-3.8-15c-0.8-0.3-1.7-0.6-2.5-0.7h-4.8l-1.7,4.7c1.5,0,3,0.1,4.5,0.4c4.3,1,5.4,4.5,3.2,10.6h-16.7l-1.9,5.2h58   c6.2-0.7,11.3-5,12.9-11l3.7-9.9h-5.4L326-370.7z"></path>		<path id="Path_26" class="st0" d="M373.1-381.3h-13c-7.2,0.3-13.4,5.3-15.4,12.3l-5.7,16.2h5.2l5.6-15.4c1.8-5,5.2-8.1,8.6-8.1   h3.8c-1.4,1.6-2.6,3.4-3.3,5.4c-2.2,6,0.3,10.7,6.5,10.7c6.4-0.3,12-4.5,14.2-10.6s-0.2-10.8-6.4-10.8 M367.3-364.9   c-3.1,0-4.3-2.7-3-6c0.9-3.2,3.7-5.6,7.1-5.9c3.2,0,4.2,2.6,3,6.1C373.4-367.5,370.6-365.2,367.3-364.9"></path>		<path id="Path_27" class="st0" d="M432.7-390.6h-5l-1.9,5.1h5L432.7-390.6z"></path>		<path id="Path_28" class="st0" d="M459.9-390.6h-5l-1.8,5.1h5L459.9-390.6z"></path>		<path id="Path_29" class="st0" d="M451.4-381.3l-3.8,10.8c-0.4,1.2-0.9,2.3-1.6,3.3c-1,1.1-2.4,1.6-3.8,1.5h-8.3   c3.8-10.5,1.6-15.8-6.2-15.8c-4.9,0-10.2,2.5-16.5,8l6.7-16.7h-5.1l-8.9,24.5h-10.6c-1.3,0.2-2.7-0.1-3.8-0.8   c-0.7-0.7-0.7-2.2,0-4.4l7.1-19.3h-5l-7.7,21.3c-0.9,1.9-1.1,4-0.3,6c1,1.7,2.9,2.7,4.9,2.4h52.9c5.1,0.1,9.6-3.4,10.8-8.4   l4.6-12.6L451.4-381.3z M428.3-365.6h-20.5c5.4-6.4,12.5-11.2,17.6-11.2c4.4,0,5.7,3.8,3.6,9.7   C428.9-366.6,428.7-366.1,428.3-365.6"></path>	</g></g></svg>